<svg width="18" height="20" viewBox="0 0 18 20" fill="none" xmlns="http://www.w3.org/2000/svg">
<path fill-rule="evenodd" clip-rule="evenodd" d="M9.03 1.99535e-05C11.29 0.01002 13.45 0.91002 15.03 2.49002C16.62 4.08002 17.51 6.23002 17.5 8.46002V8.51002C17.44 11.54 15.74 14.33 13.62 16.51C12.42 17.74 11.09 18.83 9.64 19.75C9.25 20.08 8.68 20.08 8.29 19.75C6.14 18.35 4.24 16.59 2.7 14.54C1.35 12.76 0.58 10.62 0.5 8.39002C0.52 3.74002 4.34 -0.00998005 9.03 1.99535e-05ZM9.02984 11.2602C9.73984 11.2602 10.4198 10.9902 10.9198 10.5002C11.4398 9.99016 11.7308 9.31116 11.7308 8.60016C11.7308 7.12016 10.5198 5.93016 9.02984 5.93016C7.53984 5.93016 6.33984 7.12016 6.33984 8.60016C6.33984 10.0612 7.51984 11.2402 8.99984 11.2602H9.02984Z" fill="white"/>
</svg>
