<svg width="18" height="20" viewBox="0 0 18 20" fill="none" xmlns="http://www.w3.org/2000/svg">
<path fill-rule="evenodd" clip-rule="evenodd" d="M9.03 0.000264094C11.29 0.0102641 13.45 0.910264 15.03 2.49026C16.62 4.08026 17.51 6.23026 17.5 8.46026V8.51026C17.44 11.5403 15.74 14.3303 13.62 16.5103C12.42 17.7403 11.09 18.8303 9.64 19.7503C9.25 20.0803 8.68 20.0803 8.29 19.7503C6.14 18.3503 4.24 16.5903 2.7 14.5403C1.35 12.7603 0.58 10.6203 0.5 8.39026C0.52 3.74026 4.34 -0.00973591 9.03 0.000264094ZM9.02984 11.2604C9.73984 11.2604 10.4198 10.9904 10.9198 10.5004C11.4398 9.9904 11.7308 9.3114 11.7308 8.6004C11.7308 7.1204 10.5198 5.9304 9.02984 5.9304C7.53984 5.9304 6.33984 7.1204 6.33984 8.6004C6.33984 10.0614 7.51984 11.2404 8.99984 11.2604H9.02984Z" fill="white"/>
</svg>
