<svg width="20" height="18" viewBox="0 0 20 18" fill="none" xmlns="http://www.w3.org/2000/svg">
<path fill-rule="evenodd" clip-rule="evenodd" d="M14.939 0.000244141C16.28 0.000244141 17.57 0.530244 18.519 1.48124C19.469 2.43024 20 3.71024 20 5.05024V12.9502C20 15.7402 17.73 18.0002 14.939 18.0002H5.06C2.269 18.0002 0 15.7402 0 12.9502V5.05024C0 2.26024 2.259 0.000244141 5.06 0.000244141H14.939ZM16.5299 6.54009L16.6099 6.46009C16.8489 6.17009 16.8489 5.75009 16.5989 5.46009C16.4599 5.31109 16.2689 5.22009 16.0699 5.20009C15.8599 5.18909 15.6599 5.26009 15.5089 5.40009L10.9999 9.00009C10.4199 9.48109 9.58893 9.48109 8.99993 9.00009L4.49993 5.40009C4.18893 5.17009 3.75893 5.20009 3.49993 5.47009C3.22993 5.74009 3.19993 6.17009 3.42893 6.47009L3.55993 6.60009L8.10993 10.1501C8.66993 10.5901 9.34893 10.8301 10.0599 10.8301C10.7689 10.8301 11.4599 10.5901 12.0189 10.1501L16.5299 6.54009Z" fill="white"/>
</svg>
