<svg width="64" height="46" viewBox="0 0 64 46" fill="none" xmlns="http://www.w3.org/2000/svg">
<path d="M62.6626 7.05532C61.9266 4.27824 59.7579 2.0911 57.0044 1.34886C52.0134 0.00012207 32 0.00012207 32 0.00012207C32 0.00012207 11.9867 0.00012207 6.9956 1.34886C4.24205 2.09121 2.07338 4.27824 1.33733 7.05532C-1.52588e-05 12.0889 -1.52588e-05 22.5911 -1.52588e-05 22.5911C-1.52588e-05 22.5911 -1.52588e-05 33.0933 1.33733 38.1269C2.07338 40.904 4.24205 43.0001 6.9956 43.7423C11.9867 45.091 32 45.091 32 45.091C32 45.091 52.0132 45.091 57.0044 43.7423C59.7579 43.0001 61.9266 40.904 62.6626 38.1269C64 33.0933 64 22.5911 64 22.5911C64 22.5911 64 12.0889 62.6626 7.05532ZM25.4545 32.1263V13.0559L42.1817 22.5914L25.4545 32.1263Z" fill="#FF0000"/>
</svg>
