<svg width="64" height="46" viewBox="0 0 64 46" fill="none" xmlns="http://www.w3.org/2000/svg">
<path d="M62.6627 7.05532C61.9266 4.27824 59.7579 2.0911 57.0044 1.34886C52.0134 0.00012207 32 0.00012207 32 0.00012207C32 0.00012207 11.9867 0.00012207 6.99562 1.34886C4.24206 2.09121 2.0734 4.27824 1.33734 7.05532C0 12.0889 0 22.5911 0 22.5911C0 22.5911 0 33.0933 1.33734 38.1269C2.0734 40.904 4.24206 43.0001 6.99562 43.7423C11.9867 45.091 32 45.091 32 45.091C32 45.091 52.0133 45.091 57.0044 43.7423C59.7579 43.0001 61.9266 40.904 62.6627 38.1269C64 33.0933 64 22.5911 64 22.5911C64 22.5911 64 12.0889 62.6627 7.05532ZM25.4545 32.1263V13.0559L42.1817 22.5914L25.4545 32.1263Z" fill="#FF0000"/>
</svg>
