<svg width="88" height="62" viewBox="0 0 88 62" fill="none" xmlns="http://www.w3.org/2000/svg">
<path d="M86.1612 9.7009C85.1491 5.88241 82.1672 2.87509 78.381 1.85451C71.5184 0 44 0 44 0C44 0 16.4818 0 9.61897 1.85451C5.83284 2.87525 2.85092 5.88241 1.83885 9.7009C0 16.6221 0 31.0626 0 31.0626C0 31.0626 0 45.5032 1.83885 52.4244C2.85092 56.2429 5.83284 59.1249 9.61897 60.1455C16.4818 62 44 62 44 62C44 62 71.5182 62 78.381 60.1455C82.1672 59.1249 85.1491 56.2429 86.1612 52.4244C88 45.5032 88 31.0626 88 31.0626C88 31.0626 88 16.6221 86.1612 9.7009ZM34.9999 44.1735V17.9517L57.9998 31.063L34.9999 44.1735Z" fill="#FF0000"/>
</svg>
